<mxfile host="app.diagrams.net" modified="2020-10-02T09:33:33.238Z" agent="5.0 (X11; Linux x86_64) AppleWebKit/537.36 (KHTML, like Gecko) Chrome/85.0.4183.121 Safari/537.36" etag="Se_YObiwUn-2tERW7sQu" version="13.7.7" type="github">
  <diagram id="xbnkg5EebUnIhkIq8mLE" name="Page-1">
    <mxGraphModel dx="1422" dy="757" grid="1" gridSize="10" guides="1" tooltips="1" connect="1" arrows="1" fold="1" page="1" pageScale="1" pageWidth="827" pageHeight="1169" math="0" shadow="0">
      <root>
        <mxCell id="0" />
        <mxCell id="1" parent="0" />
        <mxCell id="kW9Id02vcL3iXu5io7B1-32" value="Audio" style="verticalAlign=top;align=left;spacingTop=8;spacingLeft=2;spacingRight=12;shape=cube;size=10;direction=south;fontStyle=4;html=1;" vertex="1" parent="1">
          <mxGeometry x="660" y="380" width="260" height="200" as="geometry" />
        </mxCell>
        <mxCell id="kW9Id02vcL3iXu5io7B1-3" value="Interaction" style="verticalAlign=top;align=left;spacingTop=8;spacingLeft=2;spacingRight=12;shape=cube;size=10;direction=south;fontStyle=4;html=1;" vertex="1" parent="1">
          <mxGeometry x="50" y="250" width="590" height="330" as="geometry" />
        </mxCell>
        <mxCell id="kW9Id02vcL3iXu5io7B1-14" style="rounded=0;orthogonalLoop=1;jettySize=auto;html=1;entryX=0;entryY=0.5;entryDx=0;entryDy=0;startArrow=classic;startFill=1;exitX=1;exitY=0.25;exitDx=0;exitDy=0;" edge="1" parent="1" source="kW9Id02vcL3iXu5io7B1-4" target="kW9Id02vcL3iXu5io7B1-6">
          <mxGeometry relative="1" as="geometry" />
        </mxCell>
        <mxCell id="kW9Id02vcL3iXu5io7B1-15" style="rounded=0;orthogonalLoop=1;jettySize=auto;html=1;startArrow=classic;startFill=1;exitX=1;exitY=0.75;exitDx=0;exitDy=0;" edge="1" parent="1" source="kW9Id02vcL3iXu5io7B1-4" target="kW9Id02vcL3iXu5io7B1-8">
          <mxGeometry relative="1" as="geometry" />
        </mxCell>
        <mxCell id="kW9Id02vcL3iXu5io7B1-35" style="edgeStyle=none;rounded=0;orthogonalLoop=1;jettySize=auto;html=1;entryX=0.5;entryY=0;entryDx=0;entryDy=0;" edge="1" parent="1" source="kW9Id02vcL3iXu5io7B1-4" target="kW9Id02vcL3iXu5io7B1-34">
          <mxGeometry relative="1" as="geometry">
            <mxPoint x="335.0000000000002" y="660" as="targetPoint" />
          </mxGeometry>
        </mxCell>
        <mxCell id="kW9Id02vcL3iXu5io7B1-4" value="&lt;p style=&quot;margin: 0px ; margin-top: 6px ; text-align: center&quot;&gt;&lt;b&gt;Controller&lt;/b&gt;&lt;/p&gt;" style="align=left;overflow=fill;html=1;dropTarget=0;" vertex="1" parent="1">
          <mxGeometry x="240" y="430" width="190" height="140" as="geometry" />
        </mxCell>
        <mxCell id="kW9Id02vcL3iXu5io7B1-5" value="" style="shape=component;jettyWidth=8;jettyHeight=4;" vertex="1" parent="kW9Id02vcL3iXu5io7B1-4">
          <mxGeometry x="1" width="20" height="20" relative="1" as="geometry">
            <mxPoint x="-24" y="4" as="offset" />
          </mxGeometry>
        </mxCell>
        <mxCell id="kW9Id02vcL3iXu5io7B1-6" value="&lt;p style=&quot;margin: 0px ; margin-top: 6px ; text-align: center&quot;&gt;&lt;b&gt;Spotify&lt;/b&gt;&lt;/p&gt;" style="align=left;overflow=fill;html=1;dropTarget=0;" vertex="1" parent="1">
          <mxGeometry x="690" y="435" width="190" height="60" as="geometry" />
        </mxCell>
        <mxCell id="kW9Id02vcL3iXu5io7B1-7" value="" style="shape=component;jettyWidth=8;jettyHeight=4;" vertex="1" parent="kW9Id02vcL3iXu5io7B1-6">
          <mxGeometry x="1" width="20" height="20" relative="1" as="geometry">
            <mxPoint x="-24" y="4" as="offset" />
          </mxGeometry>
        </mxCell>
        <mxCell id="kW9Id02vcL3iXu5io7B1-8" value="&lt;p style=&quot;margin: 0px ; margin-top: 6px ; text-align: center&quot;&gt;&lt;b&gt;Radio Stations&lt;/b&gt;&lt;/p&gt;" style="align=left;overflow=fill;html=1;dropTarget=0;" vertex="1" parent="1">
          <mxGeometry x="690" y="505" width="190" height="60" as="geometry" />
        </mxCell>
        <mxCell id="kW9Id02vcL3iXu5io7B1-9" value="" style="shape=component;jettyWidth=8;jettyHeight=4;" vertex="1" parent="kW9Id02vcL3iXu5io7B1-8">
          <mxGeometry x="1" width="20" height="20" relative="1" as="geometry">
            <mxPoint x="-24" y="4" as="offset" />
          </mxGeometry>
        </mxCell>
        <mxCell id="kW9Id02vcL3iXu5io7B1-21" style="edgeStyle=orthogonalEdgeStyle;curved=1;rounded=0;orthogonalLoop=1;jettySize=auto;html=1;entryX=0.25;entryY=0;entryDx=0;entryDy=0;" edge="1" parent="1" source="kW9Id02vcL3iXu5io7B1-17" target="kW9Id02vcL3iXu5io7B1-4">
          <mxGeometry relative="1" as="geometry" />
        </mxCell>
        <mxCell id="kW9Id02vcL3iXu5io7B1-17" value="&lt;p style=&quot;margin: 0px ; margin-top: 6px ; text-align: center&quot;&gt;&lt;b&gt;Bluetooth&lt;/b&gt;&lt;/p&gt;" style="align=left;overflow=fill;html=1;dropTarget=0;" vertex="1" parent="1">
          <mxGeometry x="130" y="300" width="190" height="60" as="geometry" />
        </mxCell>
        <mxCell id="kW9Id02vcL3iXu5io7B1-18" value="" style="shape=component;jettyWidth=8;jettyHeight=4;" vertex="1" parent="kW9Id02vcL3iXu5io7B1-17">
          <mxGeometry x="1" width="20" height="20" relative="1" as="geometry">
            <mxPoint x="-24" y="4" as="offset" />
          </mxGeometry>
        </mxCell>
        <mxCell id="kW9Id02vcL3iXu5io7B1-22" style="edgeStyle=orthogonalEdgeStyle;curved=1;rounded=0;orthogonalLoop=1;jettySize=auto;html=1;entryX=0.75;entryY=0;entryDx=0;entryDy=0;" edge="1" parent="1" source="kW9Id02vcL3iXu5io7B1-19" target="kW9Id02vcL3iXu5io7B1-4">
          <mxGeometry relative="1" as="geometry" />
        </mxCell>
        <mxCell id="kW9Id02vcL3iXu5io7B1-19" value="&lt;p style=&quot;margin: 0px ; margin-top: 6px ; text-align: center&quot;&gt;&lt;b&gt;Management&lt;/b&gt;&lt;/p&gt;" style="align=left;overflow=fill;html=1;dropTarget=0;" vertex="1" parent="1">
          <mxGeometry x="360" y="300" width="190" height="60" as="geometry" />
        </mxCell>
        <mxCell id="kW9Id02vcL3iXu5io7B1-20" value="" style="shape=component;jettyWidth=8;jettyHeight=4;" vertex="1" parent="kW9Id02vcL3iXu5io7B1-19">
          <mxGeometry x="1" width="20" height="20" relative="1" as="geometry">
            <mxPoint x="-24" y="4" as="offset" />
          </mxGeometry>
        </mxCell>
        <mxCell id="kW9Id02vcL3iXu5io7B1-30" style="edgeStyle=none;rounded=0;orthogonalLoop=1;jettySize=auto;html=1;entryX=0.5;entryY=0;entryDx=0;entryDy=0;" edge="1" parent="1" source="kW9Id02vcL3iXu5io7B1-26" target="kW9Id02vcL3iXu5io7B1-17">
          <mxGeometry relative="1" as="geometry" />
        </mxCell>
        <mxCell id="kW9Id02vcL3iXu5io7B1-26" value="Bluetooth" style="shape=hexagon;perimeter=hexagonPerimeter2;whiteSpace=wrap;html=1;fixedSize=1;" vertex="1" parent="1">
          <mxGeometry x="165" y="140" width="120" height="80" as="geometry" />
        </mxCell>
        <mxCell id="kW9Id02vcL3iXu5io7B1-31" style="edgeStyle=none;rounded=0;orthogonalLoop=1;jettySize=auto;html=1;" edge="1" parent="1" source="kW9Id02vcL3iXu5io7B1-27" target="kW9Id02vcL3iXu5io7B1-19">
          <mxGeometry relative="1" as="geometry" />
        </mxCell>
        <mxCell id="kW9Id02vcL3iXu5io7B1-27" value="HTTP" style="shape=hexagon;perimeter=hexagonPerimeter2;whiteSpace=wrap;html=1;fixedSize=1;" vertex="1" parent="1">
          <mxGeometry x="395" y="140" width="120" height="80" as="geometry" />
        </mxCell>
        <mxCell id="kW9Id02vcL3iXu5io7B1-29" style="rounded=0;orthogonalLoop=1;jettySize=auto;html=1;entryX=0.5;entryY=0;entryDx=0;entryDy=0;" edge="1" parent="1" source="kW9Id02vcL3iXu5io7B1-28" target="kW9Id02vcL3iXu5io7B1-6">
          <mxGeometry relative="1" as="geometry" />
        </mxCell>
        <mxCell id="kW9Id02vcL3iXu5io7B1-28" value="Spotify Connect" style="shape=hexagon;perimeter=hexagonPerimeter2;whiteSpace=wrap;html=1;fixedSize=1;" vertex="1" parent="1">
          <mxGeometry x="725" y="140" width="120" height="80" as="geometry" />
        </mxCell>
        <mxCell id="kW9Id02vcL3iXu5io7B1-34" value="Speaker" style="shape=hexagon;perimeter=hexagonPerimeter2;whiteSpace=wrap;html=1;fixedSize=1;" vertex="1" parent="1">
          <mxGeometry x="275" y="620" width="120" height="80" as="geometry" />
        </mxCell>
      </root>
    </mxGraphModel>
  </diagram>
</mxfile>
